Flexion_states
version=1
nRows=7
nColumns=41
inDegrees=yes

# SIMM Motion File Header:
name Flexion_states
datacolumns 41
datarows 7
otherdata 1
range 2.10998851 2.68604348
endheader
time	/jointset/ground_thorax/thorax_tilt/value	/jointset/ground_thorax/thorax_tilt/speed	/jointset/ground_thorax/thorax_list/value	/jointset/ground_thorax/thorax_list/speed	/jointset/ground_thorax/thorax_rotation/value	/jointset/ground_thorax/thorax_rotation/speed	/jointset/ground_thorax/thorax_tx/value	/jointset/ground_thorax/thorax_tx/speed	/jointset/ground_thorax/thorax_ty/value	/jointset/ground_thorax/thorax_ty/speed	/jointset/ground_thorax/thorax_tz/value	/jointset/ground_thorax/thorax_tz/speed	/jointset/sternoclavicular/sternoclavicular_r2/value	/jointset/sternoclavicular/sternoclavicular_r2/speed	/jointset/sternoclavicular/sternoclavicular_r3/value	/jointset/sternoclavicular/sternoclavicular_r3/speed	/jointset/unrotscap/unrotscap_r3/value	/jointset/unrotscap/unrotscap_r3/speed	/jointset/unrotscap/unrotscap_r2/value	/jointset/unrotscap/unrotscap_r2/speed	/jointset/acromioclavicular/acromioclavicular_r2/value	/jointset/acromioclavicular/acromioclavicular_r2/speed	/jointset/acromioclavicular/acromioclavicular_r3/value	/jointset/acromioclavicular/acromioclavicular_r3/speed	/jointset/acromioclavicular/acromioclavicular_r1/value	/jointset/acromioclavicular/acromioclavicular_r1/speed	/jointset/unrothum/unrothum_r1/value	/jointset/unrothum/unrothum_r1/speed	/jointset/unrothum/unrothum_r3/value	/jointset/unrothum/unrothum_r3/speed	/jointset/unrothum/unrothum_r2/value	/jointset/unrothum/unrothum_r2/speed	/jointset/shoulder0/elv_angle/value	/jointset/shoulder0/elv_angle/speed	/jointset/shoulder1/shoulder_elv/value	/jointset/shoulder1/shoulder_elv/speed	/jointset/shoulder1/shoulder1_r2/value	/jointset/shoulder1/shoulder1_r2/speed	/jointset/shoulder2/shoulder_rot/value	/jointset/shoulder2/shoulder_rot/speed
      2.10998851	      0.00000000	      0.00000000	     -0.00000000	     -0.00000000	     -0.00000000	      0.00000000	      0.00000000	      0.00000000	     -0.00000000	     -0.00000000	      0.00000000	      0.00000000	    -12.96458939	     16.47179898	      5.49118384	     -6.97667113	     -5.49118384	      6.97667113	     12.96458939	    -16.47179898	     -2.62504542	      3.33517856	     21.21441057	    -26.95338017	      9.53594611	    -12.11563148	     -9.53594611	     12.11563148	    -21.21441057	     26.95338017	      2.62504542	     -3.33517856	     90.00000000	      0.00000000	     53.57319078	    -68.06592966	    -90.00000000	     -0.00000000	      0.00000000	      0.00000000
      2.16578325	      0.00000000	      0.00000000	     -0.00000000	     -0.00000000	     -0.00000000	      0.00000000	      0.00000000	      0.00000000	     -0.00000000	     -0.00000000	      0.00000000	      0.00000000	    -12.05960790	     15.93025590	      5.10787670	     -6.74729922	     -5.10787670	      6.74729922	     12.05960790	    -15.93025590	     -2.44180649	      3.22552794	     19.73355774	    -26.06723430	      8.87029797	    -11.71730605	     -8.87029797	     11.71730605	    -19.73355774	     26.06723430	      2.44180649	     -3.22552794	     90.00000000	      0.00000000	     49.83356243	    -65.82812712	    -90.00000000	     -0.00000000	      0.00000000	      0.00000000
      2.22157800	      0.00000000	      0.00000000	     -0.00000000	     -0.00000000	     -0.00000000	      0.00000000	      0.00000000	      0.00000000	     -0.00000000	     -0.00000000	      0.00000000	      0.00000000	    -11.18968335	     15.23707261	      4.73941801	     -6.45369972	     -4.73941801	      6.45369972	     11.18968335	    -15.23707261	     -2.26566582	      3.08517351	     18.31006982	    -24.93295427	      8.23043555	    -11.20744351	     -8.23043555	     11.20744351	    -18.31006982	     24.93295427	      2.26566582	     -3.08517351	     90.00000000	      0.00000000	     46.23879886	    -62.96370626	    -90.00000000	     -0.00000000	      0.00000000	      0.00000000
      2.29268980	      0.00000000	      0.00000000	     -0.00000000	     -0.00000000	     -0.00000000	      0.00000000	      0.00000000	      0.00000000	     -0.00000000	     -0.00000000	      0.00000000	      0.00000000	    -10.14018387	     14.27115865	      4.29489991	     -6.04458448	     -4.29489991	      6.04458448	     10.14018387	    -14.27115865	     -2.05316516	      2.88959708	     16.59273714	    -23.35239550	      7.45848896	    -10.49697724	     -7.45848896	     10.49697724	    -16.59273714	     23.35239550	      2.05316516	     -2.88959708	     90.00000000	      0.00000000	     41.90198306	    -58.97228843	    -90.00000000	     -0.00000000	      0.00000000	      0.00000000
      2.38079880	      0.00000000	      0.00000000	     -0.00000000	     -0.00000000	      0.00000000	      0.00000000	      0.00000000	      0.00000000	     -0.00000000	     -0.00000000	      0.00000000	      0.00000000	     -8.93695990	     13.03838832	      3.78527143	     -5.52244156	     -3.78527143	      5.52244156	      8.93695990	    -13.03838832	     -1.80953866	      2.63998809	     14.62385972	    -21.33517035	      6.57347220	     -9.59022801	     -6.57347220	      9.59022801	    -14.62385972	     21.33517035	      1.80953866	     -2.63998809	     90.00000000	      0.00000000	     36.92993610	    -53.87814794	    -90.00000000	     -0.00000000	      0.00000000	      0.00000000
      2.50042924	      0.00000000	      0.00000000	     -0.00000000	     -0.00000000	      0.00000000	      0.00000000	      0.00000000	      0.00000000	     -0.00000000	     -0.00000000	      0.00000000	      0.00000000	     -7.47766452	     11.35926505	      3.16718327	     -4.81124476	     -3.16718327	      4.81124476	      7.47766452	    -11.35926505	     -1.51406330	      2.30000240	     12.23596370	    -18.58756227	      5.50010522	     -8.35516930	     -5.50010522	      8.35516930	    -12.23596370	     18.58756227	      1.51406330	     -2.30000240	     90.00000000	      0.00000000	     30.89973279	    -46.93955630	    -90.00000000	     -0.00000000	      0.00000000	      0.00000000
      2.68604348	      0.00000000	      0.00000000	     -0.00000000	     -0.00000000	      0.00000000	      0.00000000	      0.00000000	      0.00000000	     -0.00000000	     -0.00000000	      0.00000000	      0.00000000	     -5.60951483	      8.77538278	      2.37592386	     -3.71683504	     -2.37592386	      3.71683504	      5.60951483	     -8.77538278	     -1.13580390	      1.77682283	      9.17904510	    -14.35946544	      4.12601044	     -6.45462612	     -4.12601044	      6.45462612	     -9.17904510	     14.35946544	      1.13580390	     -1.77682283	     90.00000000	      0.00000000	     23.18003288	    -36.26225574	    -90.00000000	     -0.00000000	      0.00000000	      0.00000000
